<?xml version="1.0" encoding="iso-8859-1"?>
<!-- Generator: Adobe Illustrator 19.0.0, SVG Export Plug-In . SVG Version: 6.00 Build 0)  -->
<svg version="1.1" id="Layer_1" xmlns="http://www.w3.org/2000/svg" xmlns:xlink="http://www.w3.org/1999/xlink" x="0px" y="0px"
	 viewBox="0 0 512 512" style="enable-background:new 0 0 512 512;" xml:space="preserve">
<g>
	<g>
		<g>
			<path d="M447.168,134.56c-0.535-1.288-1.318-2.459-2.304-3.445l-128-128c-2.003-1.988-4.709-3.107-7.531-3.115H74.667
				C68.776,0,64,4.776,64,10.667v490.667C64,507.224,68.776,512,74.667,512h362.667c5.891,0,10.667-4.776,10.667-10.667V138.667
				C447.997,137.256,447.714,135.86,447.168,134.56z M320,36.416L411.584,128H320V36.416z M426.667,490.667H85.333V21.333h213.333
				v117.333c0,5.891,4.776,10.667,10.667,10.667h117.333V490.667z"/>
			<path d="M128,181.333v256c0,5.891,4.776,10.667,10.667,10.667h234.667c5.891,0,10.667-4.776,10.667-10.667v-256
				c0-5.891-4.776-10.667-10.667-10.667H138.667C132.776,170.667,128,175.442,128,181.333z M320,192h42.667v42.667H320V192z
				 M320,256h42.667v42.667H320V256z M320,320h42.667v42.667H320V320z M320,384h42.667v42.667H320V384z M213.333,192h85.333v42.667
				h-85.333V192z M213.333,256h85.333v42.667h-85.333V256z M213.333,320h85.333v42.667h-85.333V320z M213.333,384h85.333v42.667
				h-85.333V384z M149.333,192H192v42.667h-42.667V192z M149.333,256H192v42.667h-42.667V256z M149.333,320H192v42.667h-42.667V320z
				 M149.333,384H192v42.667h-42.667V384z"/>
		</g>
	</g>
</g>
<g>
</g>
<g>
</g>
<g>
</g>
<g>
</g>
<g>
</g>
<g>
</g>
<g>
</g>
<g>
</g>
<g>
</g>
<g>
</g>
<g>
</g>
<g>
</g>
<g>
</g>
<g>
</g>
<g>
</g>
</svg>
